<svg width="183" height="84" viewBox="0 0 183 84" fill="none" xmlns="http://www.w3.org/2000/svg">
<g clip-path="url(#clip0_548_268)">
<path d="M2.32627 73.332C1.93292 73.332 1.73144 73.0857 1.73144 72.5883L1.73145 25.2471C1.73145 24.7497 1.95211 24.5034 2.39823 24.5034L23.6536 24.5034C24.0998 24.5034 24.3204 24.7497 24.3204 25.2471L24.3204 29.4969C24.3204 30.0426 24.0998 30.3178 23.6536 30.3178L7.95313 30.3178L7.95313 46.4958L21.5766 46.4958C21.9699 46.4958 22.1714 46.7469 22.1714 47.2395L22.1714 51.2671C22.1714 51.7645 21.9747 52.0108 21.5766 52.0108L7.95313 52.0108L7.95313 72.5834C7.95313 73.0809 7.73247 73.3271 7.28635 73.3271L2.32627 73.3271L2.32627 73.332Z" fill="white"/>
<path d="M37.4256 73.332C36.9794 73.332 36.7588 73.0857 36.7588 72.5883L36.7588 25.2471C36.7588 24.7497 36.9794 24.5034 37.4256 24.5034L48.3867 24.5034C53.3228 24.5034 56.9637 25.6335 59.3094 27.8936C61.6551 30.1536 62.8256 33.5728 62.8256 38.1412C62.8256 41.7197 62.1828 44.6269 60.902 46.8629C59.6164 49.0988 57.7935 50.6635 55.4238 51.5569L55.4238 51.6293L64.8259 72.4289C65.1233 73.0277 64.9746 73.3223 64.3846 73.3223L58.8297 73.3223C58.5323 73.3223 58.2876 73.1726 58.091 72.8732L49.207 52.5952L42.9853 52.5952L42.9853 72.5738C42.9853 73.0712 42.7646 73.3175 42.3185 73.3175L37.4304 73.3175L37.4256 73.332ZM42.9805 47.3168L48.3099 47.3168C51.2217 47.3168 53.3467 46.5972 54.6803 45.1533C56.0139 43.7142 56.6807 41.5024 56.6807 38.5179C56.6807 35.5334 56.0283 33.2782 54.7187 32.0322C53.4091 30.7911 51.2984 30.1681 48.3867 30.1681L42.9805 30.1681L42.9805 47.312L42.9805 47.3168Z" fill="white"/>
<path d="M77.5525 73.332C77.1112 73.332 76.8857 73.0857 76.8857 72.5883L76.8857 25.2471C76.8857 24.7497 77.1064 24.5034 77.5525 24.5034L82.4406 24.5034C82.8868 24.5034 83.1074 24.7497 83.1074 25.2471L83.1074 72.5834C83.1074 73.0809 82.8868 73.3271 82.4406 73.3271L77.5525 73.3271L77.5525 73.332Z" fill="white"/>
<path d="M95.0278 83.9177C94.385 84.1157 93.9916 83.966 93.8429 83.4686L92.5093 79.1464C92.4614 78.847 92.4853 78.6007 92.5813 78.4027C92.682 78.2047 92.9027 78.0791 93.2481 78.0308C94.2842 77.7314 95.1381 77.1857 95.8049 76.3889C96.4716 75.5921 96.9753 74.4765 97.3207 73.0326C97.6661 71.5934 97.8388 69.7777 97.8388 67.59L97.8388 25.2471C97.8388 24.7497 98.0594 24.5034 98.5056 24.5034L103.466 24.5034C103.859 24.5034 104.06 24.7497 104.06 25.2471L104.06 67.3679C104.06 70.8449 103.715 73.7183 103.024 75.9784C102.334 78.2385 101.321 80.006 99.9878 81.2713C98.6543 82.5414 96.9993 83.4203 95.0278 83.9177Z" fill="white"/>
<path d="M161.673 73.332C161.231 73.332 161.006 73.0857 161.006 72.5883L161.006 25.2471C161.006 24.7497 161.227 24.5034 161.673 24.5034L166.561 24.5034C166.757 24.5034 166.916 24.5662 167.04 24.6869C167.165 24.8125 167.228 24.996 167.228 25.2471L167.228 67.5176L182.405 67.5176C182.799 67.5176 183 67.7928 183 68.3385L183 72.5883C183 73.0857 182.803 73.332 182.405 73.332L161.673 73.332Z" fill="white"/>
<path d="M149.809 50.8857L149.809 46.9402C149.809 44.5304 150.395 41.9757 151.651 38.9188C153.11 35.3886 153.066 31.7184 151.522 28.5746C148.701 22.8326 142.23 21.7508 139.803 21.3452L139.515 21.2969C131.547 19.9544 125.676 24.0592 123.464 25.6046C113.156 32.7905 112.354 45.2596 112.354 48.9154C112.354 52.5711 113.156 65.0354 123.455 72.2165C125.359 73.5542 129.983 76.7995 136.335 76.7995C137.352 76.7995 138.412 76.7174 139.51 76.529L139.784 76.4807C142.22 76.0751 148.696 74.9933 151.512 69.2562C153.052 66.122 153.1 62.4518 151.651 58.9216C150.395 55.855 149.809 53.3003 149.809 50.8905L149.809 50.8857ZM126.808 67.735L126.793 67.7253C118.687 62.0751 118.058 51.895 118.058 48.9106C118.058 45.9261 118.687 35.7508 126.803 30.0958C128.261 29.072 131.825 26.5704 136.421 26.5704C137.102 26.5704 137.802 26.6236 138.527 26.7491L138.829 26.8022C140.777 27.1306 144.83 27.8116 146.379 30.9651C146.792 31.8053 147.003 32.7471 147.003 33.7612C147.003 34.7753 146.782 35.8474 146.36 36.8664C145.861 38.093 145.449 39.2714 145.118 40.4304C144.964 40.4111 144.82 40.4062 144.686 40.4062C141.674 40.4062 139.731 43.7481 139.731 48.9154C139.731 54.0827 141.678 57.4245 144.686 57.4245C144.82 57.4245 144.964 57.4197 145.118 57.4004C145.449 58.5594 145.861 59.7426 146.37 60.9692C147.214 63.0168 147.219 65.1658 146.379 66.8609C144.835 70.0144 140.781 70.6953 138.824 71.0189L138.536 71.0672C132.953 72.0185 128.492 68.8988 126.813 67.7301L126.808 67.735Z" fill="white"/>
<path d="M6.47113 3.60747L6.47113 5.86273L-9.50034e-08 5.86273L-5.08136e-08 3.60747L6.47113 3.60747ZM1.46788 1.01416L4.4468 1.01416L4.4468 11.0976C4.4468 11.3729 4.48997 11.5902 4.57152 11.7448C4.65307 11.8993 4.773 12.0055 4.9265 12.0635C5.08 12.1214 5.25269 12.1552 5.45417 12.1552C5.59328 12.1552 5.73239 12.1408 5.8715 12.1166C6.01062 12.0925 6.12095 12.0731 6.1929 12.0587L6.66301 14.2898C6.5143 14.3381 6.30323 14.3912 6.0346 14.454C5.76597 14.5167 5.43498 14.5554 5.04642 14.5699C4.32688 14.5988 3.69847 14.5023 3.16121 14.2801C2.62395 14.058 2.20181 13.7151 1.9044 13.2515C1.60699 12.7879 1.45828 12.1987 1.46308 11.4888L1.46308 1.01416L1.46788 1.01416Z" fill="white"/>
<path d="M13.1535 14.6373C12.0645 14.6373 11.1291 14.4055 10.3376 13.9371C9.54613 13.4687 8.93691 12.8167 8.50998 11.9764C8.08305 11.141 7.86719 10.1655 7.86719 9.05956C7.86719 7.95366 8.08305 6.96366 8.50998 6.1282C8.93691 5.29274 9.55093 4.63596 10.3376 4.16753C11.1291 3.69909 12.0645 3.46729 13.1535 3.46729C14.2424 3.46729 15.1778 3.69909 15.9693 4.16753C16.7608 4.63596 17.37 5.28791 17.7969 6.1282C18.2239 6.96849 18.4397 7.944 18.4397 9.05956C18.4397 10.1751 18.2239 11.141 17.7969 11.9764C17.37 12.8119 16.756 13.4687 15.9693 13.9371C15.1778 14.4055 14.2424 14.6373 13.1535 14.6373ZM13.1679 12.3145C13.6619 12.3145 14.0745 12.1744 14.4055 11.8895C14.7365 11.6046 14.9859 11.2182 15.1586 10.7256C15.3313 10.2331 15.4128 9.67287 15.4128 9.04507C15.4128 8.41727 15.3265 7.85225 15.1586 7.35966C14.9907 6.86708 14.7365 6.47591 14.4055 6.19098C14.0745 5.90606 13.6619 5.76118 13.1679 5.76118C12.6738 5.76118 12.2516 5.90123 11.911 6.19098C11.5705 6.48074 11.3162 6.86708 11.1483 7.35966C10.9756 7.85225 10.8941 8.41244 10.8941 9.04507C10.8941 9.6777 10.9804 10.2331 11.1483 10.7256C11.3162 11.2182 11.5705 11.6046 11.911 11.8895C12.2516 12.1744 12.669 12.3145 13.1679 12.3145Z" fill="white"/>
<path d="M24.3448 14.5988C23.5293 14.5988 22.7906 14.3863 22.1286 13.9614C21.4666 13.5364 20.9438 12.9086 20.56 12.0828C20.1763 11.2522 19.9844 10.2332 19.9844 9.0307C19.9844 7.82822 20.1811 6.75612 20.5792 5.93515C20.9774 5.11418 21.505 4.49603 22.1622 4.08072C22.8194 3.6654 23.5485 3.46257 24.3352 3.46257C24.9349 3.46257 25.4385 3.56399 25.8415 3.77165C26.2444 3.97447 26.5706 4.2256 26.8201 4.52984C27.0695 4.83408 27.2614 5.12867 27.3909 5.42325L27.4821 5.42325L27.4821 1.4691e-07L30.4562 2.05186e-07L30.4562 14.425L27.5156 14.425L27.5156 12.6913L27.3909 12.6913C27.2518 12.9907 27.0551 13.2901 26.8009 13.5847C26.5466 13.8793 26.2157 14.1207 25.8127 14.3139C25.4098 14.5071 24.9157 14.6037 24.34 14.6037L24.3448 14.5988ZM25.2898 12.2083C25.7695 12.2083 26.1773 12.078 26.5083 11.8123C26.8441 11.5467 27.0983 11.1749 27.2806 10.6968C27.4581 10.2187 27.5492 9.65367 27.5492 9.01621C27.5492 8.37875 27.4629 7.81373 27.2854 7.34046C27.1079 6.8672 26.8489 6.50017 26.5179 6.24422C26.1821 5.98344 25.7743 5.85788 25.2946 5.85788C24.8149 5.85788 24.3928 5.9931 24.057 6.25871C23.7212 6.52432 23.467 6.89617 23.2943 7.36944C23.1216 7.8427 23.0353 8.39324 23.0353 9.02104C23.0353 9.64884 23.1216 10.2042 23.2991 10.6871C23.4718 11.1652 23.726 11.5419 24.0618 11.8123C24.3928 12.0828 24.8053 12.218 25.2946 12.218L25.2898 12.2083Z" fill="white"/>
<path d="M37.757 14.6373C36.6681 14.6373 35.7326 14.4055 34.9411 13.9371C34.1496 13.4687 33.5404 12.8167 33.1135 11.9764C32.6866 11.1361 32.4707 10.1655 32.4707 9.05956C32.4707 7.95366 32.6866 6.96366 33.1135 6.1282C33.5404 5.29274 34.1544 4.63596 34.9411 4.16753C35.7278 3.69909 36.6681 3.46729 37.757 3.46729C38.8459 3.46729 39.7813 3.69909 40.5728 4.16753C41.3643 4.63596 41.9735 5.28791 42.4005 6.1282C42.8274 6.96366 43.0432 7.944 43.0432 9.05956C43.0432 10.1751 42.8274 11.141 42.4005 11.9764C41.9735 12.8119 41.3595 13.4687 40.5728 13.9371C39.7813 14.4055 38.8459 14.6373 37.757 14.6373ZM37.7714 12.3145C38.2655 12.3145 38.678 12.1744 39.009 11.8895C39.34 11.6046 39.5894 11.2182 39.7621 10.7256C39.9348 10.2331 40.0164 9.67287 40.0164 9.04507C40.0164 8.41727 39.93 7.85225 39.7621 7.35966C39.5942 6.86708 39.34 6.47591 39.009 6.19098C38.678 5.90606 38.2655 5.76118 37.7714 5.76118C37.2773 5.76118 36.8551 5.90123 36.5146 6.19098C36.174 6.48074 35.9197 6.86708 35.7518 7.35966C35.5791 7.85225 35.4976 8.41244 35.4976 9.04507C35.4976 9.6777 35.5839 10.2331 35.7518 10.7256C35.9197 11.2182 36.174 11.6046 36.5146 11.8895C36.8551 12.1744 37.2725 12.3145 37.7714 12.3145Z" fill="white"/>
<path d="M54.4122 14.6375C53.3089 14.6375 52.3639 14.4009 51.5724 13.9276C50.7808 13.4544 50.1764 12.7976 49.7543 11.9573C49.3322 11.117 49.1211 10.1512 49.1211 9.05492C49.1211 7.95868 49.337 6.97351 49.7591 6.13805C50.186 5.30259 50.7952 4.64581 51.5819 4.17255C52.3686 3.69928 53.3089 3.46265 54.393 3.46265C55.3332 3.46265 56.1535 3.6365 56.8538 3.97455C57.559 4.31742 58.1154 4.80035 58.528 5.41849C58.9357 6.03664 59.166 6.76585 59.2091 7.60132L56.3981 7.60132C56.3166 7.06044 56.1103 6.62581 55.7697 6.29742C55.4291 5.9642 54.9878 5.8 54.4457 5.8C53.9852 5.8 53.5823 5.92556 53.2369 6.17669C52.8915 6.42781 52.6277 6.79483 52.4358 7.27293C52.2439 7.75102 52.148 8.33053 52.148 9.01146C52.148 9.69238 52.2439 10.2864 52.431 10.7741C52.6229 11.2571 52.8867 11.6241 53.2321 11.88C53.5775 12.136 53.9804 12.2615 54.4409 12.2615C54.7815 12.2615 55.0885 12.1939 55.362 12.0539C55.6354 11.9138 55.8609 11.7062 56.0431 11.4357C56.2206 11.1653 56.3405 10.8417 56.3981 10.4602L59.2091 10.4602C59.1612 11.286 58.9405 12.0104 58.5424 12.6382C58.1442 13.266 57.5926 13.7538 56.8922 14.1063C56.1918 14.4589 55.3668 14.6375 54.4074 14.6375L54.4122 14.6375Z" fill="white"/>
<path d="M65.9874 14.6373C64.8985 14.6373 63.9631 14.4055 63.1716 13.9371C62.3801 13.4687 61.7709 12.8167 61.344 11.9764C60.917 11.1361 60.7012 10.1655 60.7012 9.05956C60.7012 7.95366 60.917 6.96366 61.344 6.1282C61.7709 5.29274 62.3849 4.63596 63.1716 4.16753C63.9583 3.69909 64.8985 3.46729 65.9874 3.46729C67.0764 3.46729 68.0118 3.69909 68.8033 4.16753C69.5948 4.63596 70.204 5.28791 70.6309 6.1282C71.0579 6.96849 71.2737 7.944 71.2737 9.05956C71.2737 10.1751 71.0579 11.141 70.6309 11.9764C70.204 12.8119 69.59 13.4687 68.8033 13.9371C68.0118 14.4055 67.0764 14.6373 65.9874 14.6373ZM66.0018 12.3145C66.4959 12.3145 66.9085 12.1744 67.2395 11.8895C67.5704 11.6046 67.8199 11.2182 67.9926 10.7256C68.1653 10.2331 68.2468 9.67287 68.2468 9.04507C68.2468 8.41727 68.1605 7.85225 67.9926 7.35966C67.8247 6.86708 67.5704 6.47591 67.2395 6.19098C66.9085 5.90606 66.4959 5.76118 66.0018 5.76118C65.5077 5.76118 65.0856 5.90123 64.745 6.19098C64.4044 6.48074 64.1502 6.86708 63.9823 7.35966C63.8096 7.85225 63.7281 8.41244 63.7281 9.04507C63.7281 9.6777 63.8144 10.2331 63.9823 10.7256C64.1502 11.2182 64.4044 11.6046 64.745 11.8895C65.0856 12.1744 65.5029 12.3145 66.0018 12.3145Z" fill="white"/>
<path d="M76.1996 8.17117L76.1996 14.425L73.2207 14.425L73.2207 3.60752L76.0605 3.60752L76.0605 5.51508L76.1852 5.51508C76.4251 4.88728 76.8232 4.38986 77.3797 4.01801C77.9409 3.64616 78.6173 3.46265 79.4136 3.46265C80.1619 3.46265 80.8095 3.62684 81.366 3.95523C81.9224 4.28362 82.3542 4.75206 82.6612 5.36054C82.9682 5.96903 83.1217 6.69342 83.1217 7.53371L83.1217 14.4202L80.1427 14.4202L80.1427 8.06492C80.1475 7.40332 79.9797 6.88659 79.6391 6.51473C79.2985 6.14288 78.8284 5.95454 78.2335 5.95454C77.8306 5.95454 77.4804 6.04147 77.1734 6.21532C76.8664 6.38917 76.6314 6.64029 76.4587 6.97351C76.286 7.30673 76.1996 7.70273 76.1948 8.16634L76.1996 8.17117Z" fill="white"/>
</g>
<defs>
<clipPath id="clip0_548_268">
<rect width="183" height="84" fill="white"/>
</clipPath>
</defs>
</svg>
