<svg width="183" height="84" viewBox="0 0 183 84" fill="none" xmlns="http://www.w3.org/2000/svg">
<g clip-path="url(#clip0_37_35)">
<path d="M2.32652 73.3322C1.93316 73.3322 1.73169 73.0859 1.73169 72.5885V25.2473C1.73169 24.7499 1.95235 24.5036 2.39847 24.5036H23.6539C24.1 24.5036 24.3207 24.7499 24.3207 25.2473V29.497C24.3207 30.0428 24.1 30.318 23.6539 30.318H7.95337V46.496H21.5768C21.9701 46.496 22.1716 46.7471 22.1716 47.2397V51.2673C22.1716 51.7647 21.9749 52.011 21.5768 52.011H7.95337V72.5836C7.95337 73.081 7.73271 73.3273 7.28659 73.3273H2.32652V73.3322Z" fill="#4C772D"/>
<path d="M37.4261 73.3322C36.9799 73.3322 36.7593 73.0859 36.7593 72.5885V25.2473C36.7593 24.7499 36.9799 24.5036 37.4261 24.5036H48.3872C53.3233 24.5036 56.9642 25.6336 59.3099 27.8937C61.6556 30.1538 62.8261 33.5729 62.8261 38.1414C62.8261 41.7199 62.1833 44.6271 60.9025 46.863C59.6169 49.099 57.794 50.6637 55.4243 51.5571V51.6295L64.8264 72.4291C65.1238 73.0279 64.9751 73.3225 64.3851 73.3225H58.8302C58.5328 73.3225 58.2881 73.1728 58.0914 72.8734L49.2074 52.5954H42.9858V72.574C42.9858 73.0714 42.7651 73.3177 42.319 73.3177H37.4309L37.4261 73.3322ZM42.981 47.317H48.3104C51.2222 47.317 53.3472 46.5974 54.6808 45.1535C56.0144 43.7144 56.6811 41.5026 56.6811 38.5181C56.6811 35.5336 56.0287 33.2784 54.7192 32.0324C53.4096 30.7913 51.2989 30.1683 48.3872 30.1683H42.981V47.3122V47.317Z" fill="#4C772D"/>
<path d="M77.5525 73.3322C77.1112 73.3322 76.8857 73.0859 76.8857 72.5885V25.2473C76.8857 24.7499 77.1064 24.5036 77.5525 24.5036H82.4406C82.8868 24.5036 83.1074 24.7499 83.1074 25.2473V72.5836C83.1074 73.081 82.8868 73.3273 82.4406 73.3273H77.5525V73.3322Z" fill="#4C772D"/>
<path d="M95.0282 83.9179C94.3854 84.1159 93.9921 83.9662 93.8434 83.4688L92.5098 79.1466C92.4619 78.8472 92.4858 78.6009 92.5818 78.4029C92.6825 78.2049 92.9032 78.0793 93.2486 78.031C94.2847 77.7316 95.1386 77.1859 95.8053 76.3891C96.4721 75.5922 96.9758 74.4767 97.3212 73.0327C97.6666 71.5936 97.8393 69.7778 97.8393 67.5902V25.2473C97.8393 24.7499 98.0599 24.5036 98.5061 24.5036H103.466C103.859 24.5036 104.061 24.7499 104.061 25.2473V67.368C104.061 70.8451 103.716 73.7185 103.025 75.9786C102.334 78.2387 101.322 80.0062 99.9883 81.2714C98.6548 82.5415 96.9998 83.4205 95.0282 83.9179Z" fill="#4C772D"/>
<path d="M161.673 73.3322C161.231 73.3322 161.006 73.0859 161.006 72.5885V25.2473C161.006 24.7499 161.227 24.5036 161.673 24.5036H166.561C166.757 24.5036 166.916 24.5664 167.04 24.6871C167.165 24.8127 167.228 24.9962 167.228 25.2473V67.5177H182.405C182.799 67.5177 183 67.793 183 68.3387V72.5885C183 73.0859 182.803 73.3322 182.405 73.3322H161.673Z" fill="#4C772D"/>
<path d="M149.81 50.8858V46.9403C149.81 44.5305 150.395 41.9758 151.652 38.9189C153.11 35.3887 153.067 31.7185 151.522 28.5747C148.702 22.8327 142.231 21.7509 139.803 21.3453L139.515 21.297C131.548 19.9545 125.676 24.0593 123.465 25.6047C113.156 32.7906 112.355 45.2597 112.355 48.9155C112.355 52.5712 113.156 65.0355 123.455 72.2166C125.36 73.5543 129.984 76.7996 136.335 76.7996C137.352 76.7996 138.412 76.7175 139.511 76.5291L139.784 76.4808C142.221 76.0752 148.697 74.9934 151.513 69.2563C153.053 66.1221 153.101 62.4519 151.652 58.9217C150.395 55.8551 149.81 53.3004 149.81 50.8906V50.8858ZM126.808 67.7351L126.794 67.7254C118.687 62.0752 118.059 51.8951 118.059 48.9106C118.059 45.9262 118.687 35.7509 126.803 30.0959C128.262 29.0721 131.826 26.5705 136.421 26.5705C137.103 26.5705 137.803 26.6236 138.527 26.7492L138.83 26.8023C140.777 27.1307 144.831 27.8116 146.38 30.9651C146.792 31.8054 147.004 32.7471 147.004 33.7613C147.004 34.7754 146.783 35.8475 146.361 36.8665C145.862 38.0931 145.449 39.2715 145.118 40.4305C144.965 40.4112 144.821 40.4063 144.687 40.4063C141.674 40.4063 139.731 43.7482 139.731 48.9155C139.731 54.0828 141.679 57.4246 144.687 57.4246C144.821 57.4246 144.965 57.4198 145.118 57.4005C145.449 58.5595 145.862 59.7427 146.37 60.9693C147.215 63.0169 147.219 65.1659 146.38 66.861C144.835 70.0145 140.782 70.6954 138.825 71.019L138.537 71.0672C132.953 72.0186 128.492 68.8989 126.813 67.7302L126.808 67.7351Z" fill="#4C772D"/>
<path d="M6.47113 3.60744V5.8627H0V3.60744H6.47113ZM1.46788 1.01413H4.4468V11.0976C4.4468 11.3729 4.48997 11.5902 4.57152 11.7447C4.65307 11.8993 4.773 12.0055 4.9265 12.0635C5.08 12.1214 5.25269 12.1552 5.45417 12.1552C5.59328 12.1552 5.73239 12.1407 5.8715 12.1166C6.01062 12.0924 6.12095 12.0731 6.1929 12.0586L6.66301 14.2897C6.5143 14.338 6.30323 14.3912 6.0346 14.4539C5.76597 14.5167 5.43498 14.5553 5.04642 14.5698C4.32688 14.5988 3.69847 14.5022 3.16121 14.2801C2.62395 14.0579 2.20181 13.7151 1.9044 13.2515C1.60699 12.7878 1.45828 12.1987 1.46308 11.4888V1.01413H1.46788Z" fill="#4C772D"/>
<path d="M13.1532 14.6375C12.0643 14.6375 11.1289 14.4057 10.3374 13.9372C9.54589 13.4688 8.93667 12.8168 8.50974 11.9765C8.08281 11.1411 7.86694 10.1656 7.86694 9.05968C7.86694 7.95378 8.08281 6.96379 8.50974 6.12832C8.93667 5.29286 9.55068 4.63609 10.3374 4.16765C11.1289 3.69921 12.0643 3.46741 13.1532 3.46741C14.2421 3.46741 15.1775 3.69921 15.969 4.16765C16.7605 4.63609 17.3698 5.28803 17.7967 6.12832C18.2236 6.96861 18.4395 7.94412 18.4395 9.05968C18.4395 10.1752 18.2236 11.1411 17.7967 11.9765C17.3698 12.812 16.7557 13.4688 15.969 13.9372C15.1775 14.4057 14.2421 14.6375 13.1532 14.6375ZM13.1676 12.3146C13.6617 12.3146 14.0742 12.1745 14.4052 11.8896C14.7362 11.6047 14.9857 11.2184 15.1584 10.7258C15.331 10.2332 15.4126 9.673 15.4126 9.04519C15.4126 8.41739 15.3262 7.85237 15.1584 7.35978C14.9905 6.8672 14.7362 6.47603 14.4052 6.1911C14.0742 5.90618 13.6617 5.7613 13.1676 5.7613C12.6735 5.7613 12.2514 5.90135 11.9108 6.1911C11.5702 6.48086 11.316 6.8672 11.1481 7.35978C10.9754 7.85237 10.8938 8.41256 10.8938 9.04519C10.8938 9.67782 10.9802 10.2332 11.1481 10.7258C11.316 11.2184 11.5702 11.6047 11.9108 11.8896C12.2514 12.1745 12.6687 12.3146 13.1676 12.3146Z" fill="#4C772D"/>
<path d="M24.3448 14.5988C23.5293 14.5988 22.7906 14.3863 22.1286 13.9614C21.4666 13.5364 20.9438 12.9086 20.56 12.0828C20.1763 11.2522 19.9844 10.2332 19.9844 9.0307C19.9844 7.82822 20.1811 6.75612 20.5792 5.93515C20.9774 5.11418 21.505 4.49603 22.1622 4.08072C22.8194 3.6654 23.5485 3.46257 24.3352 3.46257C24.9349 3.46257 25.4385 3.56399 25.8415 3.77165C26.2444 3.97447 26.5706 4.22559 26.8201 4.52984C27.0695 4.83408 27.2614 5.12866 27.3909 5.42325H27.4821V0H30.4562V14.425H27.5156V12.6913H27.3909C27.2518 12.9907 27.0551 13.2901 26.8009 13.5847C26.5466 13.8793 26.2157 14.1207 25.8127 14.3139C25.4098 14.5071 24.9157 14.6037 24.34 14.6037L24.3448 14.5988ZM25.2898 12.2083C25.7695 12.2083 26.1773 12.078 26.5083 11.8123C26.8441 11.5467 27.0983 11.1749 27.2806 10.6968C27.4581 10.2187 27.5492 9.65367 27.5492 9.01621C27.5492 8.37875 27.4629 7.81373 27.2854 7.34046C27.1079 6.8672 26.8489 6.50017 26.5179 6.24422C26.1821 5.98344 25.7743 5.85788 25.2946 5.85788C24.8149 5.85788 24.3928 5.9931 24.057 6.25871C23.7212 6.52432 23.467 6.89617 23.2943 7.36944C23.1216 7.8427 23.0353 8.39324 23.0353 9.02104C23.0353 9.64884 23.1216 10.2042 23.2991 10.6871C23.4718 11.1652 23.726 11.5419 24.0618 11.8123C24.3928 12.0828 24.8053 12.218 25.2946 12.218L25.2898 12.2083Z" fill="#4C772D"/>
<path d="M37.757 14.6375C36.6681 14.6375 35.7326 14.4057 34.9411 13.9372C34.1496 13.4688 33.5404 12.8168 33.1135 11.9765C32.6866 11.1363 32.4707 10.1656 32.4707 9.05968C32.4707 7.95378 32.6866 6.96379 33.1135 6.12832C33.5404 5.29286 34.1544 4.63609 34.9411 4.16765C35.7278 3.69921 36.6681 3.46741 37.757 3.46741C38.8459 3.46741 39.7813 3.69921 40.5728 4.16765C41.3643 4.63609 41.9735 5.28803 42.4005 6.12832C42.8274 6.96379 43.0432 7.94412 43.0432 9.05968C43.0432 10.1752 42.8274 11.1411 42.4005 11.9765C41.9735 12.812 41.3595 13.4688 40.5728 13.9372C39.7813 14.4057 38.8459 14.6375 37.757 14.6375ZM37.7714 12.3146C38.2655 12.3146 38.678 12.1745 39.009 11.8896C39.34 11.6047 39.5894 11.2184 39.7621 10.7258C39.9348 10.2332 40.0164 9.673 40.0164 9.04519C40.0164 8.41739 39.93 7.85237 39.7621 7.35978C39.5942 6.8672 39.34 6.47603 39.009 6.1911C38.678 5.90618 38.2655 5.7613 37.7714 5.7613C37.2773 5.7613 36.8551 5.90135 36.5146 6.1911C36.174 6.48086 35.9197 6.8672 35.7518 7.35978C35.5791 7.85237 35.4976 8.41256 35.4976 9.04519C35.4976 9.67782 35.5839 10.2332 35.7518 10.7258C35.9197 11.2184 36.174 11.6047 36.5146 11.8896C36.8551 12.1745 37.2725 12.3146 37.7714 12.3146Z" fill="#4C772D"/>
<path d="M54.4122 14.6375C53.3089 14.6375 52.3639 14.4008 51.5724 13.9276C50.7808 13.4543 50.1764 12.7975 49.7543 11.9572C49.3322 11.1169 49.1211 10.1511 49.1211 9.05486C49.1211 7.95862 49.337 6.97345 49.7591 6.13799C50.186 5.30253 50.7952 4.64575 51.5819 4.17249C52.3686 3.69922 53.3089 3.46259 54.393 3.46259C55.3332 3.46259 56.1535 3.63644 56.8538 3.97449C57.559 4.31736 58.1154 4.80029 58.528 5.41843C58.9357 6.03658 59.166 6.76579 59.2091 7.60125H56.3981C56.3166 7.06038 56.1103 6.62575 55.7697 6.29736C55.4291 5.96414 54.9878 5.79994 54.4457 5.79994C53.9852 5.79994 53.5823 5.9255 53.2369 6.17662C52.8915 6.42775 52.6277 6.79477 52.4358 7.27287C52.2439 7.75096 52.148 8.33047 52.148 9.0114C52.148 9.69232 52.2439 10.2863 52.431 10.7741C52.6229 11.257 52.8867 11.624 53.2321 11.88C53.5775 12.1359 53.9804 12.2615 54.4409 12.2615C54.7815 12.2615 55.0885 12.1939 55.362 12.0538C55.6354 11.9138 55.8609 11.7061 56.0431 11.4357C56.2206 11.1652 56.3405 10.8417 56.3981 10.4602H59.2091C59.1612 11.286 58.9405 12.0104 58.5424 12.6382C58.1442 13.266 57.5926 13.7537 56.8922 14.1063C56.1918 14.4588 55.3668 14.6375 54.4074 14.6375H54.4122Z" fill="#4C772D"/>
<path d="M65.9874 14.6375C64.8985 14.6375 63.9631 14.4057 63.1716 13.9372C62.3801 13.4688 61.7709 12.8168 61.344 11.9765C60.917 11.1363 60.7012 10.1656 60.7012 9.05968C60.7012 7.95378 60.917 6.96379 61.344 6.12832C61.7709 5.29286 62.3849 4.63609 63.1716 4.16765C63.9583 3.69921 64.8985 3.46741 65.9874 3.46741C67.0764 3.46741 68.0118 3.69921 68.8033 4.16765C69.5948 4.63609 70.204 5.28803 70.6309 6.12832C71.0579 6.96861 71.2737 7.94412 71.2737 9.05968C71.2737 10.1752 71.0579 11.1411 70.6309 11.9765C70.204 12.812 69.59 13.4688 68.8033 13.9372C68.0118 14.4057 67.0764 14.6375 65.9874 14.6375ZM66.0018 12.3146C66.4959 12.3146 66.9085 12.1745 67.2395 11.8896C67.5704 11.6047 67.8199 11.2184 67.9926 10.7258C68.1653 10.2332 68.2468 9.673 68.2468 9.04519C68.2468 8.41739 68.1605 7.85237 67.9926 7.35978C67.8247 6.8672 67.5704 6.47603 67.2395 6.1911C66.9085 5.90618 66.4959 5.7613 66.0018 5.7613C65.5077 5.7613 65.0856 5.90135 64.745 6.1911C64.4044 6.48086 64.1502 6.8672 63.9823 7.35978C63.8096 7.85237 63.7281 8.41256 63.7281 9.04519C63.7281 9.67782 63.8144 10.2332 63.9823 10.7258C64.1502 11.2184 64.4044 11.6047 64.745 11.8896C65.0856 12.1745 65.5029 12.3146 66.0018 12.3146Z" fill="#4C772D"/>
<path d="M76.2001 8.17111V14.425H73.2212V3.60746H76.061V5.51502H76.1857C76.4256 4.88721 76.8237 4.3898 77.3802 4.01795C77.9414 3.6461 78.6178 3.46259 79.4141 3.46259C80.1624 3.46259 80.81 3.62678 81.3665 3.95517C81.9229 4.28356 82.3546 4.752 82.6617 5.36048C82.9687 5.96897 83.1222 6.69335 83.1222 7.53364V14.4202H80.1432V8.06486C80.148 7.40325 79.9801 6.88652 79.6396 6.51467C79.299 6.14282 78.8289 5.95448 78.234 5.95448C77.8311 5.95448 77.4809 6.04141 77.1739 6.21526C76.8669 6.38911 76.6318 6.64023 76.4592 6.97345C76.2865 7.30667 76.2001 7.70267 76.1953 8.16628L76.2001 8.17111Z" fill="#4C772D"/>
</g>
<defs>
<clipPath id="clip0_37_35">
<rect width="183" height="84" fill="white"/>
</clipPath>
</defs>
</svg>
