<svg width="80" height="80" viewBox="0 0 80 80" fill="none" xmlns="http://www.w3.org/2000/svg">
<path d="M39.63 79.26C34.6582 79.26 31.0411 72.6103 26.7157 70.8155C22.2322 68.9588 14.9911 71.0287 11.6078 67.6523C8.23133 64.2758 10.3012 57.0279 8.44452 52.5443C6.58783 48.0608 3.02992e-06 44.6018 3.46456e-06 39.63C3.89921e-06 34.6582 6.64972 31.0411 8.44452 26.7157C10.3012 22.2321 8.23133 14.9911 11.6078 11.6078C14.9842 8.23133 22.2322 10.3012 26.7157 8.4445C31.1993 6.58781 34.6582 3.73018e-06 39.63 4.16483e-06C44.6018 4.59948e-06 48.2189 6.6497 52.5443 8.4445C57.0279 10.3012 64.269 8.23133 67.6523 11.6078C71.0356 14.9842 68.9588 22.2321 70.8155 26.7157C72.6103 31.0411 79.26 34.6582 79.26 39.63C79.26 44.6018 72.6103 48.2189 70.8155 52.5443C68.9588 57.0279 71.0287 64.269 67.6523 67.6523C64.2758 71.0287 57.0279 68.9588 52.5443 70.8155C48.2189 72.6103 44.6018 79.26 39.63 79.26Z" fill="#4C772D"/>
<path d="M51.4784 41.1291L51.4784 38.1241C51.4784 36.288 51.9254 34.3488 52.8882 32.0176C54.0091 29.3289 53.9747 26.5369 52.7919 24.1439C50.6326 19.7703 45.6746 18.952 43.811 18.6426L43.591 18.6082C37.4845 17.5836 32.9872 20.7124 31.2887 21.8883C23.3874 27.3553 22.7754 36.8519 22.7754 39.63C22.7754 42.4082 23.3874 51.8979 31.2818 57.3649C32.7396 58.3826 36.288 60.8513 41.1498 60.8513C41.9268 60.8513 42.7382 60.7894 43.5841 60.645L43.7904 60.6106C45.6608 60.3012 50.6188 59.4829 52.7781 55.1093C53.9609 52.7231 53.9953 49.9312 52.8813 47.2425C51.9186 44.9044 51.4716 42.9652 51.4716 41.1291L51.4784 41.1291ZM33.8536 53.9541L33.8399 53.9541C27.6303 49.6424 27.1489 41.8993 27.1489 39.63C27.1489 37.3608 27.6303 29.6108 33.8468 25.306C34.9677 24.529 37.6977 22.6241 41.2116 22.6241C41.7342 22.6241 42.2706 22.6654 42.8208 22.7617L43.0546 22.8029C44.5468 23.0505 47.655 23.5731 48.8378 25.9731C49.1541 26.6126 49.3123 27.3278 49.3123 28.0979C49.3123 28.8681 49.1404 29.6864 48.8241 30.4635C48.439 31.3987 48.1226 32.2927 47.8682 33.1729C47.7513 33.1591 47.6413 33.1523 47.5381 33.1523C45.2345 33.1523 43.7422 35.6966 43.7422 39.63C43.7422 43.5635 45.2345 46.1078 47.5381 46.1078C47.6413 46.1078 47.7513 46.1078 47.8682 46.0872C48.1226 46.9674 48.439 47.8682 48.8241 48.8035C49.4705 50.3645 49.4773 51.9942 48.8309 53.287C47.6482 55.687 44.5399 56.2027 43.0408 56.4503L42.8208 56.4847C38.5435 57.2067 35.1258 54.8343 33.8399 53.9472L33.8536 53.9541Z" fill="white"/>
</svg>
